<mxfile host="app.diagrams.net" modified="2024-06-13T08:30:22.261Z" agent="Mozilla/5.0 (X11; Linux x86_64; rv:109.0) Gecko/20100101 Firefox/115.0" etag="F519K1r3Cl4OTrFWTSk4" version="24.5.4" type="device">
  <diagram name="Página-1" id="CBR-pMvpNvf4DPiNlyrw">
    <mxGraphModel dx="699" dy="353" grid="1" gridSize="10" guides="1" tooltips="1" connect="1" arrows="0" fold="1" page="1" pageScale="1" pageWidth="1169" pageHeight="827" background="#FFF4C3" math="0" shadow="0">
      <root>
        <mxCell id="0" />
        <mxCell id="1" parent="0" />
        <mxCell id="hxGihY_tEhizg9hLPqqv-1" style="edgeStyle=orthogonalEdgeStyle;rounded=0;orthogonalLoop=1;jettySize=auto;html=1;exitX=0.5;exitY=1;exitDx=0;exitDy=0;entryX=0.5;entryY=0;entryDx=0;entryDy=0;dashed=1;" parent="1" source="OzoSG0Pu-Z7uOkjksjxz-1" target="OzoSG0Pu-Z7uOkjksjxz-3" edge="1">
          <mxGeometry relative="1" as="geometry" />
        </mxCell>
        <mxCell id="OzoSG0Pu-Z7uOkjksjxz-1" value="Recepción : Lugar" style="rounded=0;whiteSpace=wrap;html=1;" parent="1" vertex="1">
          <mxGeometry x="40" y="120" width="120" height="40" as="geometry" />
        </mxCell>
        <mxCell id="hxGihY_tEhizg9hLPqqv-10" style="edgeStyle=orthogonalEdgeStyle;rounded=0;orthogonalLoop=1;jettySize=auto;html=1;exitX=0.5;exitY=1;exitDx=0;exitDy=0;entryX=0.5;entryY=0;entryDx=0;entryDy=0;dashed=1;" parent="1" source="OzoSG0Pu-Z7uOkjksjxz-3" target="LxIDmFdK8Zu4CFaYpn0N-18" edge="1">
          <mxGeometry relative="1" as="geometry" />
        </mxCell>
        <mxCell id="OzoSG0Pu-Z7uOkjksjxz-3" value="" style="rounded=0;whiteSpace=wrap;html=1;" parent="1" vertex="1">
          <mxGeometry x="90" y="285" width="20" height="120" as="geometry" />
        </mxCell>
        <mxCell id="OzoSG0Pu-Z7uOkjksjxz-10" value="Reservar pedido ( )" style="text;html=1;align=center;verticalAlign=middle;whiteSpace=wrap;rounded=0;" parent="1" vertex="1">
          <mxGeometry x="270" y="655" width="110" height="30" as="geometry" />
        </mxCell>
        <mxCell id="OzoSG0Pu-Z7uOkjksjxz-16" value="" style="shape=umlDestroy;whiteSpace=wrap;html=1;strokeWidth=3;targetShapes=umlLifeline;" parent="1" vertex="1">
          <mxGeometry x="180" y="690" width="20" height="20" as="geometry" />
        </mxCell>
        <mxCell id="ZeQWAFRNg3F0iEA5SLW--3" style="rounded=0;orthogonalLoop=1;jettySize=auto;html=1;exitX=1;exitY=0.5;exitDx=0;exitDy=0;" parent="1" edge="1">
          <mxGeometry relative="1" as="geometry">
            <mxPoint x="110" y="385" as="sourcePoint" />
            <mxPoint x="410" y="385" as="targetPoint" />
          </mxGeometry>
        </mxCell>
        <mxCell id="hxGihY_tEhizg9hLPqqv-9" style="edgeStyle=orthogonalEdgeStyle;rounded=0;orthogonalLoop=1;jettySize=auto;html=1;exitX=0.5;exitY=1;exitDx=0;exitDy=0;entryX=0.5;entryY=0;entryDx=0;entryDy=0;dashed=1;" parent="1" source="LxIDmFdK8Zu4CFaYpn0N-3" target="LxIDmFdK8Zu4CFaYpn0N-14" edge="1">
          <mxGeometry relative="1" as="geometry" />
        </mxCell>
        <mxCell id="LxIDmFdK8Zu4CFaYpn0N-3" value="Pedido : paquete" style="rounded=0;whiteSpace=wrap;html=1;" parent="1" vertex="1">
          <mxGeometry x="360" y="120" width="120" height="40" as="geometry" />
        </mxCell>
        <mxCell id="hxGihY_tEhizg9hLPqqv-5" style="edgeStyle=orthogonalEdgeStyle;rounded=0;orthogonalLoop=1;jettySize=auto;html=1;exitX=0.5;exitY=1;exitDx=0;exitDy=0;dashed=1;" parent="1" source="LxIDmFdK8Zu4CFaYpn0N-4" target="LxIDmFdK8Zu4CFaYpn0N-6" edge="1">
          <mxGeometry relative="1" as="geometry" />
        </mxCell>
        <mxCell id="LxIDmFdK8Zu4CFaYpn0N-4" value="Existencias : almacén" style="rounded=0;whiteSpace=wrap;html=1;" parent="1" vertex="1">
          <mxGeometry x="200" y="120" width="120" height="40" as="geometry" />
        </mxCell>
        <mxCell id="hxGihY_tEhizg9hLPqqv-14" style="edgeStyle=orthogonalEdgeStyle;rounded=0;orthogonalLoop=1;jettySize=auto;html=1;exitX=0.5;exitY=1;exitDx=0;exitDy=0;dashed=1;" parent="1" source="LxIDmFdK8Zu4CFaYpn0N-5" target="LxIDmFdK8Zu4CFaYpn0N-26" edge="1">
          <mxGeometry relative="1" as="geometry" />
        </mxCell>
        <mxCell id="LxIDmFdK8Zu4CFaYpn0N-5" value="NIvel de reposición" style="rounded=0;whiteSpace=wrap;html=1;" parent="1" vertex="1">
          <mxGeometry x="680" y="120" width="120" height="40" as="geometry" />
        </mxCell>
        <mxCell id="hxGihY_tEhizg9hLPqqv-2" style="edgeStyle=orthogonalEdgeStyle;rounded=0;orthogonalLoop=1;jettySize=auto;html=1;exitX=0;exitY=0.75;exitDx=0;exitDy=0;entryX=1;entryY=0.5;entryDx=0;entryDy=0;dashed=1;dashPattern=8 8;" parent="1" source="LxIDmFdK8Zu4CFaYpn0N-6" target="OzoSG0Pu-Z7uOkjksjxz-3" edge="1">
          <mxGeometry relative="1" as="geometry" />
        </mxCell>
        <mxCell id="hxGihY_tEhizg9hLPqqv-6" style="edgeStyle=orthogonalEdgeStyle;rounded=0;orthogonalLoop=1;jettySize=auto;html=1;exitX=0.5;exitY=1;exitDx=0;exitDy=0;entryX=0.5;entryY=0;entryDx=0;entryDy=0;dashed=1;" parent="1" source="LxIDmFdK8Zu4CFaYpn0N-6" target="LxIDmFdK8Zu4CFaYpn0N-22" edge="1">
          <mxGeometry relative="1" as="geometry" />
        </mxCell>
        <mxCell id="LxIDmFdK8Zu4CFaYpn0N-6" value="" style="rounded=0;whiteSpace=wrap;html=1;" parent="1" vertex="1">
          <mxGeometry x="250" y="285" width="20" height="80" as="geometry" />
        </mxCell>
        <mxCell id="LxIDmFdK8Zu4CFaYpn0N-9" style="edgeStyle=orthogonalEdgeStyle;rounded=0;orthogonalLoop=1;jettySize=auto;html=1;exitX=1;exitY=0.25;exitDx=0;exitDy=0;" parent="1" edge="1">
          <mxGeometry relative="1" as="geometry">
            <mxPoint x="110" y="305" as="sourcePoint" />
            <mxPoint x="250" y="305" as="targetPoint" />
          </mxGeometry>
        </mxCell>
        <mxCell id="LxIDmFdK8Zu4CFaYpn0N-10" value="&lt;font style=&quot;font-size: 10px;&quot;&gt;Comprobar&lt;/font&gt;&lt;font style=&quot;font-size: 10px;&quot;&gt; &lt;/font&gt;&lt;font style=&quot;font-size: 10px;&quot;&gt;existencia&lt;/font&gt;( )" style="text;html=1;align=center;verticalAlign=middle;whiteSpace=wrap;rounded=0;" parent="1" vertex="1">
          <mxGeometry x="140" y="280" width="100" height="30" as="geometry" />
        </mxCell>
        <mxCell id="LxIDmFdK8Zu4CFaYpn0N-11" value="&lt;font style=&quot;font-size: 11px;&quot;&gt;dato&lt;/font&gt;&lt;font style=&quot;font-size: 10px;&quot;&gt; &lt;/font&gt;&lt;font style=&quot;font-size: 10px;&quot;&gt;existencia&lt;/font&gt; ( )" style="text;html=1;align=center;verticalAlign=middle;whiteSpace=wrap;rounded=0;" parent="1" vertex="1">
          <mxGeometry x="140" y="320" width="100" height="30" as="geometry" />
        </mxCell>
        <mxCell id="LxIDmFdK8Zu4CFaYpn0N-13" value="&lt;font style=&quot;font-size: 10px;&quot;&gt;if : hay existencias&lt;/font&gt;" style="shape=umlFrame;whiteSpace=wrap;html=1;pointerEvents=0;width=110;height=20;" parent="1" vertex="1">
          <mxGeometry x="40" y="200" width="740" height="420" as="geometry" />
        </mxCell>
        <mxCell id="XhrjxvT95i7WExqRr9ik-10" style="rounded=0;orthogonalLoop=1;jettySize=auto;html=1;entryX=0;entryY=0.75;entryDx=0;entryDy=0;" edge="1" parent="1">
          <mxGeometry relative="1" as="geometry">
            <mxPoint x="430" y="390" as="sourcePoint" />
            <mxPoint x="890" y="390" as="targetPoint" />
          </mxGeometry>
        </mxCell>
        <mxCell id="XhrjxvT95i7WExqRr9ik-39" style="edgeStyle=orthogonalEdgeStyle;rounded=0;orthogonalLoop=1;jettySize=auto;html=1;exitX=0.5;exitY=1;exitDx=0;exitDy=0;dashed=1;" edge="1" parent="1" source="LxIDmFdK8Zu4CFaYpn0N-14" target="XhrjxvT95i7WExqRr9ik-38">
          <mxGeometry relative="1" as="geometry" />
        </mxCell>
        <mxCell id="LxIDmFdK8Zu4CFaYpn0N-14" value="" style="rounded=0;whiteSpace=wrap;html=1;" parent="1" vertex="1">
          <mxGeometry x="410" y="334" width="20" height="76" as="geometry" />
        </mxCell>
        <mxCell id="LxIDmFdK8Zu4CFaYpn0N-15" value="&lt;font style=&quot;font-size: 11px;&quot;&gt;Asignar a pedido&lt;/font&gt;( )" style="text;html=1;align=center;verticalAlign=middle;whiteSpace=wrap;rounded=0;" parent="1" vertex="1">
          <mxGeometry x="280" y="365" width="100" height="30" as="geometry" />
        </mxCell>
        <mxCell id="hxGihY_tEhizg9hLPqqv-11" style="edgeStyle=orthogonalEdgeStyle;rounded=0;orthogonalLoop=1;jettySize=auto;html=1;exitX=0.5;exitY=1;exitDx=0;exitDy=0;entryX=0.5;entryY=0;entryDx=0;entryDy=0;dashed=1;" parent="1" source="LxIDmFdK8Zu4CFaYpn0N-16" target="LxIDmFdK8Zu4CFaYpn0N-19" edge="1">
          <mxGeometry relative="1" as="geometry" />
        </mxCell>
        <mxCell id="LxIDmFdK8Zu4CFaYpn0N-16" value="Pedido : Espera" style="rounded=0;whiteSpace=wrap;html=1;" parent="1" vertex="1">
          <mxGeometry x="520" y="120" width="120" height="40" as="geometry" />
        </mxCell>
        <mxCell id="LxIDmFdK8Zu4CFaYpn0N-17" value="&lt;font style=&quot;font-size: 10px;&quot;&gt;else&lt;/font&gt;&lt;font style=&quot;font-size: 10px;&quot;&gt; : no hay existencias&lt;/font&gt;" style="shape=umlFrame;whiteSpace=wrap;html=1;pointerEvents=0;width=150;height=20;" parent="1" vertex="1">
          <mxGeometry x="40" y="620" width="740" height="100" as="geometry" />
        </mxCell>
        <mxCell id="LxIDmFdK8Zu4CFaYpn0N-21" style="edgeStyle=orthogonalEdgeStyle;rounded=0;orthogonalLoop=1;jettySize=auto;html=1;exitX=1;exitY=0.5;exitDx=0;exitDy=0;entryX=0;entryY=0.5;entryDx=0;entryDy=0;" parent="1" source="LxIDmFdK8Zu4CFaYpn0N-18" target="LxIDmFdK8Zu4CFaYpn0N-19" edge="1">
          <mxGeometry relative="1" as="geometry" />
        </mxCell>
        <mxCell id="XhrjxvT95i7WExqRr9ik-44" style="edgeStyle=orthogonalEdgeStyle;rounded=0;orthogonalLoop=1;jettySize=auto;html=1;exitX=0.5;exitY=1;exitDx=0;exitDy=0;dashed=1;" edge="1" parent="1" source="LxIDmFdK8Zu4CFaYpn0N-18" target="OzoSG0Pu-Z7uOkjksjxz-16">
          <mxGeometry relative="1" as="geometry">
            <Array as="points">
              <mxPoint x="130" y="700" />
              <mxPoint x="130" y="700" />
            </Array>
          </mxGeometry>
        </mxCell>
        <mxCell id="LxIDmFdK8Zu4CFaYpn0N-18" value="" style="rounded=0;whiteSpace=wrap;html=1;" parent="1" vertex="1">
          <mxGeometry x="90" y="660" width="20" height="40" as="geometry" />
        </mxCell>
        <mxCell id="XhrjxvT95i7WExqRr9ik-37" style="edgeStyle=orthogonalEdgeStyle;rounded=0;orthogonalLoop=1;jettySize=auto;html=1;exitX=1;exitY=0.75;exitDx=0;exitDy=0;dashed=1;" edge="1" parent="1" source="LxIDmFdK8Zu4CFaYpn0N-19" target="XhrjxvT95i7WExqRr9ik-35">
          <mxGeometry relative="1" as="geometry" />
        </mxCell>
        <mxCell id="LxIDmFdK8Zu4CFaYpn0N-19" value="" style="rounded=0;whiteSpace=wrap;html=1;" parent="1" vertex="1">
          <mxGeometry x="570" y="660" width="20" height="40" as="geometry" />
        </mxCell>
        <mxCell id="XhrjxvT95i7WExqRr9ik-28" style="edgeStyle=orthogonalEdgeStyle;rounded=0;orthogonalLoop=1;jettySize=auto;html=1;exitX=0.5;exitY=1;exitDx=0;exitDy=0;dashed=1;" edge="1" parent="1" source="LxIDmFdK8Zu4CFaYpn0N-22" target="XhrjxvT95i7WExqRr9ik-27">
          <mxGeometry relative="1" as="geometry" />
        </mxCell>
        <mxCell id="LxIDmFdK8Zu4CFaYpn0N-22" value="" style="rounded=0;whiteSpace=wrap;html=1;" parent="1" vertex="1">
          <mxGeometry x="250" y="440" width="20" height="110" as="geometry" />
        </mxCell>
        <mxCell id="LxIDmFdK8Zu4CFaYpn0N-23" value="Comprobar stock( )" style="text;html=1;align=center;verticalAlign=middle;resizable=0;points=[];autosize=1;strokeColor=none;fillColor=none;" parent="1" vertex="1">
          <mxGeometry x="450" y="440" width="130" height="30" as="geometry" />
        </mxCell>
        <mxCell id="LxIDmFdK8Zu4CFaYpn0N-24" style="edgeStyle=orthogonalEdgeStyle;rounded=0;orthogonalLoop=1;jettySize=auto;html=1;entryX=1;entryY=0.75;entryDx=0;entryDy=0;" parent="1" edge="1">
          <mxGeometry relative="1" as="geometry">
            <mxPoint x="270" y="500" as="sourcePoint" />
            <mxPoint x="270.03000000000003" y="540" as="targetPoint" />
            <Array as="points">
              <mxPoint x="300" y="500" />
              <mxPoint x="300" y="540" />
            </Array>
          </mxGeometry>
        </mxCell>
        <mxCell id="LxIDmFdK8Zu4CFaYpn0N-25" value="Reponer&amp;nbsp; stock( )" style="text;html=1;align=center;verticalAlign=middle;resizable=0;points=[];autosize=1;strokeColor=none;fillColor=none;" parent="1" vertex="1">
          <mxGeometry x="290" y="505" width="120" height="30" as="geometry" />
        </mxCell>
        <mxCell id="LxIDmFdK8Zu4CFaYpn0N-30" value="dato nivel reposicion( )" style="text;html=1;align=center;verticalAlign=middle;resizable=0;points=[];autosize=1;strokeColor=none;fillColor=none;" parent="1" vertex="1">
          <mxGeometry x="430" y="490" width="140" height="30" as="geometry" />
        </mxCell>
        <mxCell id="YLJ8_a-3jchEFjO90hL9-1" value="&lt;font style=&quot;font-size: 11px;&quot;&gt;while : por cada artículo&lt;br&gt;&lt;/font&gt;" style="shape=umlFrame;whiteSpace=wrap;html=1;pointerEvents=0;width=130;height=20;" parent="1" vertex="1">
          <mxGeometry x="80" y="245" width="450" height="180" as="geometry" />
        </mxCell>
        <mxCell id="XhrjxvT95i7WExqRr9ik-30" style="edgeStyle=orthogonalEdgeStyle;rounded=0;orthogonalLoop=1;jettySize=auto;html=1;exitX=0.5;exitY=1;exitDx=0;exitDy=0;dashed=1;" edge="1" parent="1" source="LxIDmFdK8Zu4CFaYpn0N-26" target="XhrjxvT95i7WExqRr9ik-29">
          <mxGeometry relative="1" as="geometry" />
        </mxCell>
        <mxCell id="LxIDmFdK8Zu4CFaYpn0N-26" value="" style="rounded=0;whiteSpace=wrap;html=1;" parent="1" vertex="1">
          <mxGeometry x="730" y="440" width="20" height="60" as="geometry" />
        </mxCell>
        <mxCell id="XhrjxvT95i7WExqRr9ik-23" style="edgeStyle=orthogonalEdgeStyle;rounded=0;orthogonalLoop=1;jettySize=auto;html=1;exitX=0.5;exitY=1;exitDx=0;exitDy=0;entryX=0.5;entryY=0;entryDx=0;entryDy=0;dashed=1;" edge="1" parent="1" source="hxGihY_tEhizg9hLPqqv-15" target="XhrjxvT95i7WExqRr9ik-1">
          <mxGeometry relative="1" as="geometry" />
        </mxCell>
        <mxCell id="hxGihY_tEhizg9hLPqqv-15" value="Revisar pago : Administración" style="rounded=0;whiteSpace=wrap;html=1;" parent="1" vertex="1">
          <mxGeometry x="840" y="120" width="120" height="40" as="geometry" />
        </mxCell>
        <mxCell id="XhrjxvT95i7WExqRr9ik-24" style="edgeStyle=orthogonalEdgeStyle;rounded=0;orthogonalLoop=1;jettySize=auto;html=1;exitX=0.5;exitY=1;exitDx=0;exitDy=0;entryX=0.5;entryY=0;entryDx=0;entryDy=0;dashed=1;" edge="1" parent="1" source="hxGihY_tEhizg9hLPqqv-16" target="XhrjxvT95i7WExqRr9ik-2">
          <mxGeometry relative="1" as="geometry" />
        </mxCell>
        <mxCell id="hxGihY_tEhizg9hLPqqv-16" value="Cliente : presona" style="rounded=0;whiteSpace=wrap;html=1;" parent="1" vertex="1">
          <mxGeometry x="1000" y="120" width="120" height="40" as="geometry" />
        </mxCell>
        <mxCell id="XhrjxvT95i7WExqRr9ik-25" style="edgeStyle=orthogonalEdgeStyle;rounded=0;orthogonalLoop=1;jettySize=auto;html=1;exitX=0.5;exitY=1;exitDx=0;exitDy=0;entryX=0.5;entryY=0;entryDx=0;entryDy=0;dashed=1;" edge="1" parent="1" source="XhrjxvT95i7WExqRr9ik-1" target="XhrjxvT95i7WExqRr9ik-15">
          <mxGeometry relative="1" as="geometry" />
        </mxCell>
        <mxCell id="XhrjxvT95i7WExqRr9ik-1" value="" style="rounded=0;whiteSpace=wrap;html=1;" vertex="1" parent="1">
          <mxGeometry x="890" y="320" width="20" height="130" as="geometry" />
        </mxCell>
        <mxCell id="XhrjxvT95i7WExqRr9ik-26" style="edgeStyle=orthogonalEdgeStyle;rounded=0;orthogonalLoop=1;jettySize=auto;html=1;exitX=0.5;exitY=1;exitDx=0;exitDy=0;dashed=1;" edge="1" parent="1" source="XhrjxvT95i7WExqRr9ik-2" target="XhrjxvT95i7WExqRr9ik-16">
          <mxGeometry relative="1" as="geometry" />
        </mxCell>
        <mxCell id="XhrjxvT95i7WExqRr9ik-2" value="" style="rounded=0;whiteSpace=wrap;html=1;" vertex="1" parent="1">
          <mxGeometry x="1050" y="320" width="20" height="130" as="geometry" />
        </mxCell>
        <mxCell id="XhrjxvT95i7WExqRr9ik-4" style="edgeStyle=orthogonalEdgeStyle;rounded=0;orthogonalLoop=1;jettySize=auto;html=1;exitX=1;exitY=0.25;exitDx=0;exitDy=0;entryX=0;entryY=0.25;entryDx=0;entryDy=0;" edge="1" parent="1">
          <mxGeometry relative="1" as="geometry">
            <mxPoint x="910" y="330" as="sourcePoint" />
            <mxPoint x="1050" y="330" as="targetPoint" />
          </mxGeometry>
        </mxCell>
        <mxCell id="XhrjxvT95i7WExqRr9ik-5" style="edgeStyle=orthogonalEdgeStyle;rounded=0;orthogonalLoop=1;jettySize=auto;html=1;exitX=1;exitY=0.25;exitDx=0;exitDy=0;entryX=0;entryY=0.25;entryDx=0;entryDy=0;dashed=1;dashPattern=8 8;startArrow=classic;startFill=1;endArrow=none;endFill=0;" edge="1" parent="1">
          <mxGeometry relative="1" as="geometry">
            <mxPoint x="910" y="365" as="sourcePoint" />
            <mxPoint x="1050" y="365" as="targetPoint" />
          </mxGeometry>
        </mxCell>
        <mxCell id="XhrjxvT95i7WExqRr9ik-6" value="&lt;font style=&quot;font-size: 10px;&quot;&gt;Consulta saldo( ) &lt;/font&gt;" style="text;html=1;align=center;verticalAlign=middle;resizable=0;points=[];autosize=1;strokeColor=none;fillColor=none;" vertex="1" parent="1">
          <mxGeometry x="920" y="310" width="100" height="30" as="geometry" />
        </mxCell>
        <mxCell id="XhrjxvT95i7WExqRr9ik-7" value="&lt;font style=&quot;font-size: 10px;&quot;&gt;Dato saldo( ) &lt;/font&gt;" style="text;html=1;align=center;verticalAlign=middle;resizable=0;points=[];autosize=1;strokeColor=none;fillColor=none;" vertex="1" parent="1">
          <mxGeometry x="940" y="340" width="80" height="30" as="geometry" />
        </mxCell>
        <mxCell id="XhrjxvT95i7WExqRr9ik-8" style="edgeStyle=orthogonalEdgeStyle;rounded=0;orthogonalLoop=1;jettySize=auto;html=1;exitX=1;exitY=0.25;exitDx=0;exitDy=0;entryX=0;entryY=0.25;entryDx=0;entryDy=0;dashed=1;dashPattern=8 8;startArrow=classic;startFill=1;endArrow=none;endFill=0;" edge="1" parent="1">
          <mxGeometry relative="1" as="geometry">
            <mxPoint x="910" y="430" as="sourcePoint" />
            <mxPoint x="1050" y="430" as="targetPoint" />
          </mxGeometry>
        </mxCell>
        <mxCell id="XhrjxvT95i7WExqRr9ik-9" style="edgeStyle=orthogonalEdgeStyle;rounded=0;orthogonalLoop=1;jettySize=auto;html=1;exitX=1;exitY=0.25;exitDx=0;exitDy=0;entryX=0;entryY=0.25;entryDx=0;entryDy=0;" edge="1" parent="1">
          <mxGeometry relative="1" as="geometry">
            <mxPoint x="910" y="405" as="sourcePoint" />
            <mxPoint x="1050" y="405" as="targetPoint" />
          </mxGeometry>
        </mxCell>
        <mxCell id="XhrjxvT95i7WExqRr9ik-11" value="&lt;font style=&quot;font-size: 10px;&quot;&gt;Pedido completo( )&lt;/font&gt;" style="text;html=1;align=center;verticalAlign=middle;resizable=0;points=[];autosize=1;strokeColor=none;fillColor=none;" vertex="1" parent="1">
          <mxGeometry x="610" y="370" width="110" height="30" as="geometry" />
        </mxCell>
        <mxCell id="XhrjxvT95i7WExqRr9ik-12" value="&lt;div&gt;&lt;font style=&quot;font-size: 10px;&quot;&gt;if : Hay saldo&lt;br&gt;&lt;/font&gt;&lt;/div&gt;" style="shape=umlFrame;whiteSpace=wrap;html=1;pointerEvents=0;width=110;height=20;" vertex="1" parent="1">
          <mxGeometry x="860" y="280" width="230" height="190" as="geometry" />
        </mxCell>
        <mxCell id="XhrjxvT95i7WExqRr9ik-13" value="&lt;font style=&quot;font-size: 10px;&quot;&gt;Envío a cliente( )&lt;br&gt;&lt;/font&gt;" style="text;html=1;align=center;verticalAlign=middle;resizable=0;points=[];autosize=1;strokeColor=none;fillColor=none;" vertex="1" parent="1">
          <mxGeometry x="930" y="384" width="100" height="30" as="geometry" />
        </mxCell>
        <mxCell id="XhrjxvT95i7WExqRr9ik-14" value="&lt;font style=&quot;font-size: 10px;&quot;&gt;else&lt;/font&gt;&lt;font style=&quot;font-size: 10px;&quot;&gt; : No hay saldo &lt;/font&gt;" style="shape=umlFrame;whiteSpace=wrap;html=1;pointerEvents=0;width=130;height=20;" vertex="1" parent="1">
          <mxGeometry x="860" y="470" width="230" height="140" as="geometry" />
        </mxCell>
        <mxCell id="XhrjxvT95i7WExqRr9ik-19" style="edgeStyle=orthogonalEdgeStyle;rounded=0;orthogonalLoop=1;jettySize=auto;html=1;exitX=1;exitY=0.75;exitDx=0;exitDy=0;entryX=0;entryY=0.5;entryDx=0;entryDy=0;" edge="1" parent="1" source="XhrjxvT95i7WExqRr9ik-15" target="XhrjxvT95i7WExqRr9ik-16">
          <mxGeometry relative="1" as="geometry" />
        </mxCell>
        <mxCell id="XhrjxvT95i7WExqRr9ik-42" style="edgeStyle=orthogonalEdgeStyle;rounded=0;orthogonalLoop=1;jettySize=auto;html=1;exitX=0.5;exitY=1;exitDx=0;exitDy=0;dashed=1;" edge="1" parent="1" source="XhrjxvT95i7WExqRr9ik-15" target="XhrjxvT95i7WExqRr9ik-40">
          <mxGeometry relative="1" as="geometry" />
        </mxCell>
        <mxCell id="XhrjxvT95i7WExqRr9ik-15" value="" style="rounded=0;whiteSpace=wrap;html=1;" vertex="1" parent="1">
          <mxGeometry x="890" y="520" width="20" height="80" as="geometry" />
        </mxCell>
        <mxCell id="XhrjxvT95i7WExqRr9ik-43" style="edgeStyle=orthogonalEdgeStyle;rounded=0;orthogonalLoop=1;jettySize=auto;html=1;exitX=0.5;exitY=1;exitDx=0;exitDy=0;dashed=1;" edge="1" parent="1" source="XhrjxvT95i7WExqRr9ik-16" target="XhrjxvT95i7WExqRr9ik-41">
          <mxGeometry relative="1" as="geometry" />
        </mxCell>
        <mxCell id="XhrjxvT95i7WExqRr9ik-16" value="" style="rounded=0;whiteSpace=wrap;html=1;" vertex="1" parent="1">
          <mxGeometry x="1050" y="560" width="20" height="40" as="geometry" />
        </mxCell>
        <mxCell id="XhrjxvT95i7WExqRr9ik-17" style="edgeStyle=orthogonalEdgeStyle;rounded=0;orthogonalLoop=1;jettySize=auto;html=1;exitX=1;exitY=0;exitDx=0;exitDy=0;entryX=1;entryY=0.5;entryDx=0;entryDy=0;" edge="1" parent="1" source="XhrjxvT95i7WExqRr9ik-15" target="XhrjxvT95i7WExqRr9ik-15">
          <mxGeometry relative="1" as="geometry">
            <Array as="points">
              <mxPoint x="930" y="520" />
              <mxPoint x="930" y="560" />
            </Array>
          </mxGeometry>
        </mxCell>
        <mxCell id="XhrjxvT95i7WExqRr9ik-18" value="&lt;div&gt;&lt;font style=&quot;font-size: 10px;&quot;&gt;Cancelar&amp;nbsp;&lt;/font&gt;&lt;/div&gt;&lt;div&gt;&lt;font style=&quot;font-size: 10px;&quot;&gt;pedido( )&lt;/font&gt;&lt;/div&gt;" style="text;html=1;align=center;verticalAlign=middle;resizable=0;points=[];autosize=1;strokeColor=none;fillColor=none;" vertex="1" parent="1">
          <mxGeometry x="920" y="525" width="70" height="40" as="geometry" />
        </mxCell>
        <mxCell id="XhrjxvT95i7WExqRr9ik-20" value="&lt;font style=&quot;font-size: 10px;&quot;&gt;Aviso a cliente( )&lt;/font&gt;" style="text;html=1;align=center;verticalAlign=middle;resizable=0;points=[];autosize=1;strokeColor=none;fillColor=none;" vertex="1" parent="1">
          <mxGeometry x="920" y="578" width="100" height="30" as="geometry" />
        </mxCell>
        <mxCell id="XhrjxvT95i7WExqRr9ik-22" value="&lt;font style=&quot;font-size: 10px;&quot;&gt;Confirmación&lt;/font&gt;&lt;font style=&quot;font-size: 10px;&quot;&gt; cliente( )&lt;br&gt;&lt;/font&gt;" style="text;html=1;align=center;verticalAlign=middle;resizable=0;points=[];autosize=1;strokeColor=none;fillColor=none;" vertex="1" parent="1">
          <mxGeometry x="920" y="425" width="120" height="30" as="geometry" />
        </mxCell>
        <mxCell id="XhrjxvT95i7WExqRr9ik-27" value="" style="shape=umlDestroy;whiteSpace=wrap;html=1;strokeWidth=3;targetShapes=umlLifeline;" vertex="1" parent="1">
          <mxGeometry x="250" y="590" width="20" height="20" as="geometry" />
        </mxCell>
        <mxCell id="XhrjxvT95i7WExqRr9ik-29" value="" style="shape=umlDestroy;whiteSpace=wrap;html=1;strokeWidth=3;targetShapes=umlLifeline;" vertex="1" parent="1">
          <mxGeometry x="730" y="550" width="20" height="20" as="geometry" />
        </mxCell>
        <mxCell id="XhrjxvT95i7WExqRr9ik-33" style="edgeStyle=orthogonalEdgeStyle;rounded=0;orthogonalLoop=1;jettySize=auto;html=1;exitX=1;exitY=0.25;exitDx=0;exitDy=0;entryX=0;entryY=0.25;entryDx=0;entryDy=0;dashed=1;dashPattern=8 8;startArrow=classic;startFill=1;endArrow=none;endFill=0;" edge="1" parent="1">
          <mxGeometry relative="1" as="geometry">
            <mxPoint x="270" y="490" as="sourcePoint" />
            <mxPoint x="730" y="490" as="targetPoint" />
          </mxGeometry>
        </mxCell>
        <mxCell id="XhrjxvT95i7WExqRr9ik-34" style="edgeStyle=orthogonalEdgeStyle;rounded=0;orthogonalLoop=1;jettySize=auto;html=1;exitX=1;exitY=0.25;exitDx=0;exitDy=0;entryX=0;entryY=0.25;entryDx=0;entryDy=0;" edge="1" parent="1">
          <mxGeometry relative="1" as="geometry">
            <mxPoint x="270" y="460" as="sourcePoint" />
            <mxPoint x="730" y="460" as="targetPoint" />
          </mxGeometry>
        </mxCell>
        <mxCell id="XhrjxvT95i7WExqRr9ik-35" value="" style="shape=umlDestroy;whiteSpace=wrap;html=1;strokeWidth=3;targetShapes=umlLifeline;" vertex="1" parent="1">
          <mxGeometry x="690" y="680" width="20" height="20" as="geometry" />
        </mxCell>
        <mxCell id="XhrjxvT95i7WExqRr9ik-38" value="" style="shape=umlDestroy;whiteSpace=wrap;html=1;strokeWidth=3;targetShapes=umlLifeline;" vertex="1" parent="1">
          <mxGeometry x="410" y="570" width="20" height="20" as="geometry" />
        </mxCell>
        <mxCell id="XhrjxvT95i7WExqRr9ik-40" value="" style="shape=umlDestroy;whiteSpace=wrap;html=1;strokeWidth=3;targetShapes=umlLifeline;" vertex="1" parent="1">
          <mxGeometry x="890" y="640" width="20" height="20" as="geometry" />
        </mxCell>
        <mxCell id="XhrjxvT95i7WExqRr9ik-41" value="" style="shape=umlDestroy;whiteSpace=wrap;html=1;strokeWidth=3;targetShapes=umlLifeline;" vertex="1" parent="1">
          <mxGeometry x="1050" y="640" width="20" height="20" as="geometry" />
        </mxCell>
      </root>
    </mxGraphModel>
  </diagram>
</mxfile>
